# xmcd
#
# Track frame offsets: 
#        150
#        19052
#        43367
#        58200
#        80177
#        95130
#        108727
#        125045
#
# Disc length: 2087 seconds
#
# Revision: 4
# Processed by: cddbd v1.5.2PL0 Copyright (c) Steve Scherf et al.
# Submitted via: ExactAudioCopy v1.3
#
DISCID=7c082508
DTITLE=Louis Tillett - Ego Tripping At The Gates Of Hell
DYEAR=1987
DGENRE=Blues
TTITLE0=Trip To Kalu-ki-bar
TTITLE1=Duet In Blue Minor
TTITLE2=Swimming In The Mirror
TTITLE3=Dream Well
TTITLE4=Voluntary Slavery
TTITLE5=On Your Way Down
TTITLE6=Persephone's Dance
TTITLE7=Dead End Street In The Lucky Country
EXTD=Citadel Records
EXTT0=
EXTT1=
EXTT2=
EXTT3=
EXTT4=
EXTT5=
EXTT6=
EXTT7=
PLAYORDER=
